<svg width="15" height="14" viewBox="0 0 15 14" fill="none" xmlns="http://www.w3.org/2000/svg">
<path d="M12.6246 8.20623C12.9001 8.20623 13.1506 8.03089 13.2258 7.75535L14.4031 2.54521C14.4782 2.16947 14.2027 1.79374 13.8019 1.79374H3.98276L3.75732 0.691595C3.68217 0.416058 3.43168 0.190619 3.15615 0.190619H0.601171C0.250488 0.190619 0 0.466156 0 0.79179V1.19257C0 1.54325 0.250488 1.79374 0.601171 1.79374H2.32954L4.108 10.4105C3.65712 10.661 3.35654 11.1369 3.40664 11.7131C3.43168 12.4144 4.00781 12.9905 4.73422 13.0156C5.53578 13.0657 6.2121 12.4144 6.2121 11.6129C6.2121 11.2371 6.03676 10.8865 5.78627 10.6109H11.0215C10.771 10.8865 10.5956 11.2622 10.6207 11.663C10.6207 12.4144 11.2469 13.0156 11.9984 13.0156C12.7749 13.0406 13.4261 12.4144 13.4261 11.6129C13.4261 11.0618 13.1005 10.5859 12.6246 10.3604L12.7498 9.75926C12.85 9.38352 12.5494 9.00779 12.1737 9.00779H5.46064L5.28529 8.20623H12.6246ZM10.0947 4.99999C10.3451 4.99999 10.4954 5.32562 10.2951 5.52601L8.61678 7.20428C8.49154 7.32952 8.3162 7.32952 8.19095 7.20428L6.51268 5.52601C6.31229 5.32562 6.46259 4.99999 6.71307 4.99999H7.81522V3.49706C7.81522 3.34677 7.94047 3.19647 8.11581 3.19647H8.71698C8.86727 3.19647 9.01756 3.34677 9.01756 3.49706V4.99999H10.0947Z" fill="white"/>
</svg>
