<svg width="10" height="11" viewBox="0 0 10 11" fill="none" xmlns="http://www.w3.org/2000/svg">
<path d="M8.9375 0.875H6.59375L6.39844 0.523438C6.32031 0.367188 6.16406 0.25 5.98828 0.25H3.74219C3.56641 0.25 3.41016 0.367188 3.33203 0.523438L3.15625 0.875H0.8125C0.636719 0.875 0.5 1.03125 0.5 1.1875V1.8125C0.5 1.98828 0.636719 2.125 0.8125 2.125H8.9375C9.09375 2.125 9.25 1.98828 9.25 1.8125V1.1875C9.25 1.03125 9.09375 0.875 8.9375 0.875ZM1.53516 9.37109C1.55469 9.87891 1.96484 10.25 2.47266 10.25H7.25781C7.76562 10.25 8.17578 9.87891 8.19531 9.37109L8.625 2.75H1.125L1.53516 9.37109Z" fill="#868E96"/>
</svg>
